<?xml version="1.0" encoding="utf-8"?>
<!-- Generator: Adobe Illustrator 24.2.3, SVG Export Plug-In . SVG Version: 6.00 Build 0)  -->
<svg version="1.1" id="Layer_1" xmlns="http://www.w3.org/2000/svg" xmlns:xlink="http://www.w3.org/1999/xlink" x="0px" y="0px"
	 viewBox="0 0 850 170" style="enable-background:new 0 0 850 170;" xml:space="preserve">
<style type="text/css">
	.st0{opacity:0.4;}
	.st1{fill:#010101;}
	.st2{fill:#BD9975;}
	.st3{fill:#916F6F;}
	.st4{fill:#BAE3E7;}
	.st5{fill:#32B6BA;}
	.st6{fill:#A15124;}
	.st7{fill:#F58B1F;}
	.st8{fill:#38592A;}
	.st9{fill:#64933F;}
</style>
<g id="Layer_2_2_" class="st0">
	<g id="_1st_Shelf_1_">
		<rect x="354.2" y="98.72" class="st1" width="137.23" height="69.06"/>
		<path class="st1" d="M843.03,154.58l-14.39,13.19l-100.4-0.63v0.64H491.43V98.72h236.82v0.1l11.81-0.1l3.94,3.08l19.19,0.52
			L843.03,154.58z"/>
		<path class="st1" d="M134.01,98.72H354.2v69.06H134.01v-0.64l-103,0.64l-14.46-13.19l79.89-52.29l19.19-0.52l3.92-3.05l14.44,0.12
			L134.01,98.72z"/>
		<path id="Left_Shelf_Outline_1_" class="st1" d="M113.26,106.39c1.48-0.69,2.89-1.53,4.2-2.51c1.12-1,24-1.12,235.89-1.13v-6.14
			c-74.85,0-142,0.21-173.65,0.46l-62.15,0.48l-2,1.75c-2.42,2-1.63,1.91-12.33,1.75l-8.67-0.19l-39.82,25.85
			c-21.93,14.23-40.26,26.46-40.75,27.19c-1.25,1.87-0.12,3.28,8.18,10.23l6.87,5.76h324.32v-5.52l-323.1,0.14l-3.52-2.86
			c-1.23-0.88-2.36-1.88-3.37-3c0.64-0.65,30.8-1,137.66-1.46c58.75-0.28,125.07-0.44,192.33-0.51v-4.38
			c-31.83,0.05-62.17,0.15-90.16,0.3c-42.22,0.23-85.51,0.48-121.24,0.71s-63.92,0.43-75.91,0.55c-24,0.25-43.63,0.26-43.63,0
			c0-0.46,0.51-0.8,44-29l29.28-19l5.9,0.21l5.96,0.23l-26.34,18.14c-14.45,10-27.29,18.68-28.53,19.39c-6,3.43-12.52,3.31,148,2.67
			c43.13-0.17,98.75-0.29,152.65-0.33v-3c-26.27,0-49.94,0.1-68.79,0.19c-65.38,0.32-143.1,0.6-172.7,0.63L58,144.05l2.84-2
			C73.28,133.11,110.97,107.49,113.26,106.39z"/>
		<path id="Right_Shelf_Outline_1_" class="st1" d="M846.54,157.64c-2.59,2.62-5.36,5.05-8.28,7.29l-6.41,5.06H491.43v-5.59
			l339.81-0.1l3.5-2.67c1.21-0.82,2.32-1.77,3.33-2.83c-1.14-1.14-163.41-1.93-346.64-2v-4.5c104.83,0.14,214.56,0.68,304,1.57
			c38.42,0.38,43.78,0.3,42.84-0.61c-0.6-0.58-17.21-11.48-36.93-24.22l-35.85-23.19l-11.82,0.45l26.57,18.36
			c14.61,10.09,27.5,18.82,28.63,19.39s1.95,1.38,1.81,1.8c-0.28,0.86-75.55,1-297.13,0.44l-22.12-0.05v-3
			c35,0,69.5,0.13,99.88,0.26c88.5,0.37,172.32,0.57,186.25,0.46l25.33-0.21l-18.78-13c-30.95-21.36-36.15-24.84-37-24.84
			c-1.06-0.33-2.04-0.88-2.87-1.61l-2.06-1.62H491.43V96.5c81.5,0,156.27,0.21,189.78,0.49l62.17,0.5l2.17,1.81
			c2.09,1.77,2.45,1.82,11.62,1.67l9.46-0.15l40,25.9c22,14.24,40.38,26.52,40.89,27.29C848.27,155.22,848.14,155.71,846.54,157.64z
			"/>
		<g id="Shelf_Middle_1_">
			<polygon class="st1" points="522.36,164.39 522.36,169.99 328.4,169.99 328.4,164.45 439.26,164.42 			"/>
			<path class="st1" d="M522.36,152.3v4.43c-63.84,0-129.15,0-194,0v-4.43C390.55,152.24,455.88,152.23,522.36,152.3z"/>
			<path class="st1" d="M522.36,143.2v3c-56.36,0-124.35,0-194,0v-3C388.2,143.15,455.72,143.15,522.36,143.2z"/>
			<path class="st1" d="M522.36,96.52v6.17h-194v-6.15C391.76,96.51,458.25,96.51,522.36,96.52z"/>
		</g>
		<g id="Top_Flower_Pot_1_">
			<g id="Top_Shelf_Pot_1_">
				<path class="st1" d="M169.82,87.3c3.6,11.59-4.74,21.9-5.62,22.94c-2.16,3.32-5.38,5.81-9.14,7.06c-2,0.65-3.82,0.63-7.38,0.65
					c-4.44,0-6.75,0-9.17-1c-1.3-0.58-3.48-1.85-6.5-6.58c-3.5-5.49-8.91-14-6-23.34c1.05-3.33,2.93-6.33,5.46-8.73
					c2.47,1.29,5.04,2.36,7.7,3.2c2.65,0.84,5.37,1.45,8.13,1.8c5.98-0.5,11.83-2.07,17.25-4.64
					C166.97,81.08,168.78,84.04,169.82,87.3z"/>
				<path class="st1" d="M171.55,87.85c-1.7-7.61-8.22-14.35-14-14.46c-3.79-0.08-4.09,1.56-0.49,2.73
					c8.25,2.66-5.09,6.94-15.12,4.84c-5.63-1.18-6.24-1.67-5.14-4.09c2.33-5.11-4.23-2.88-8.66,2.94
					c-5.47,7.2-5.54,16.53-0.18,27.11c1.73,3.42,6.69,9.6,9,11.25c1.73,0.81,3.57,1.33,5.47,1.55c5.12,0.76,11.14,0.32,15-1.11
					C165.78,115.49,173.84,97.95,171.55,87.85z M167.55,100.3c-2,5.55-6.12,12.16-8.81,14.21c-2.35,1.79-3.23,2-9.51,2.18
					c-9.13,0.26-11-0.48-15.26-6c-6.72-8.78-8.69-19.22-5-26.44c2-3.85,4-5.65,4.87-4.31c3,4.61,22.65,5.24,27.29,0.88
					c2.14-2,3.13-1.47,5.58,3c1.7,3.12,2.06,4.63,2,8.54C168.69,95.05,168.3,97.72,167.55,100.3z"/>
			</g>
			<g id="Flower_1_">
				<path class="st1" d="M150.31,23.49c-0.67-1.54-1.12-3.16-1.35-4.82c-0.58-4.57-2.41-8.21-4.53-9c-2.5-1-2.89-0.62-3.87,3.27
					l-0.83,3.29l-2.83-3.58c-2.8-3.55-5.35-5.14-6.46-3.96s-2.19,5.51-2.19,8.28c0,3.3-1.2,3.62-3.7,1
					c-1.77-1.87-3.8-2.34-4.59-1.06s2.24,10,4.31,13.07c0.91,1.24,1.54,2.67,1.82,4.19c0.31,1.4,1.05,2.67,2.11,3.64
					c2.6,2.6,7.06,2.88,10.69,0.66c1.51-0.85,3.2-1.34,4.93-1.43c2,0,3.16-0.58,5-2.45c2.08-2.08,2.44-3,2.44-5.8
					C151.27,26.98,150.95,25.19,150.31,23.49z"/>
				<path class="st1" d="M132.1,12.79c0.33-0.33,1.38,0.37,2.34,1.56c1.26,1.55,1.88,3.53,1.73,5.53c0,4-0.69,4.66-3,2.81
					c-1.41-1.14-1.7-2.05-1.7-5.34C131.49,15.17,131.77,13.12,132.1,12.79z"/>
				<path class="st1" d="M136.14,36.3c-1.48,0.94-4.56,0.84-5.58-0.18c-1.43-1.42-1-2.07,1.11-1.62l3.75,0.78
					C136.81,35.61,136.96,35.82,136.14,36.3z"/>
				<path class="st1" d="M135.12,32.71c-2.18,0.16-4.31-0.68-5.8-2.28c-1.59-1.44-2.94-3.13-4-5c-1.81-3.53-0.89-3.63,5.2-0.55
					c4.81,2.43,7.81,5,7.81,6.75C138.33,32.43,137.55,32.71,135.12,32.71z"/>
				<path class="st1" d="M139.9,28.4c-2.1-2.84-2-4,1-8.62c1.06-1.49,1.9-3.13,2.5-4.86c0-0.51,0.29-0.93,0.64-0.93
					c1.67,0,2.07,8.82,0.56,12.44C142.93,30.3,141.71,30.86,139.9,28.4z"/>
				<path class="st1" d="M147.45,31.89c-1.05,0.64-2.21,1.08-3.42,1.29l-2.46,0.48l2.31-1.95c1.14-0.91,2.08-2.06,2.74-3.36
					c0.25-0.77,0.75-1.4,1.12-1.4C148.78,26.95,148.55,30.99,147.45,31.89z"/>
				<path class="st1" d="M168.09,40.05c-0.89,1.45-4.65,7-8.36,12.35s-7.58,11.34-8.62,13.32l-1.88,3.58l-0.55-5.4
					c-1.01-7.7-2.57-15.31-4.65-22.79c-1-3.52-2.46-5.07-3.93-4.17c-0.74,0.46-0.46,1.91,1.88,9.68c0.9,3,1.82,6.45,2,7.74
					c0.38,2.14,0.31,2.26-0.93,1.49c-1.04-0.84-1.87-1.91-2.44-3.12c-2.87-6-13.51-6.2-24.87-0.4c-2.09,1.07-3,2-2.84,2.79
					s0.9,1.18,3.53,1c2.82-0.2,4.32,0.3,10.38,3.48c7.68,4,9.92,4.28,13,1.42c0.56-0.61,1.24-1.09,2-1.43c0.8,0,3.23,5.3,3.79,8.25
					c0.47,2.54,0.4,2.74-0.84,2.23c-0.75-0.3-4-1.45-7.15-2.54c-2.78-0.93-5.51-2-8.18-3.23c-2-1-2.56-1.08-3.36-0.27
					c-1.41,1.42,0.52,5,4.81,8.81c4.47,4,7.88,5.61,13.25,6.17c6.44,0.67,10.45-1.16,16.6-7.59c5.61-5.87,10.6-17.51,11.6-27.05
					C173.15,36.57,171.36,34.75,168.09,40.05z"/>
				<path class="st1" d="M145.93,75.53c0,3.16-10.53-0.82-14.37-5.44c-1.67-2-0.31-2,5.43,0C143.71,72.36,145.93,73.72,145.93,75.53
					z"/>
				<path class="st1" d="M167.84,52.57c-1.93,8-7.3,16.6-12.79,20.55c-1.16,0.91-2.42,1.69-3.75,2.32c-0.94,0,0.35-4.62,2.42-8.69
					c2.5-4.89,14.48-22.27,15.36-22.27C169.72,44.48,169.6,45.3,167.84,52.57z"/>
				<path class="st1" d="M140.34,56.8l-1.65,1.76c-0.92,0.99-2.17,1.61-3.51,1.74c-2,0-13.14-5.77-13.55-7
					c-0.32-0.94,3.26-2.2,7.61-2.69c4.53-0.5,8,0.86,9.72,3.8L140.34,56.8z"/>
			</g>
		</g>
	</g>
</g>
<g id="Layer_2_1_">
	<g id="_1st_Shelf">
		<rect x="343.2" y="91.72" class="st2" width="137.23" height="69.06"/>
		<path class="st2" d="M832.03,147.58l-14.39,13.19l-100.4-0.63v0.64H480.43V91.72h236.82v0.1l11.81-0.1l3.94,3.08l19.19,0.52
			L832.03,147.58z"/>
		<path class="st2" d="M123.01,91.72H343.2v69.06H123.01v-0.64l-103,0.64L5.55,147.59L85.44,95.3l19.19-0.52l3.92-3.05l14.44,0.12
			L123.01,91.72z"/>
		<path id="Left_Shelf_Outline" class="st3" d="M102.26,99.39c1.48-0.69,2.89-1.53,4.2-2.51c1.12-1,24-1.12,235.89-1.13v-6.14
			c-74.85,0-142,0.21-173.65,0.46l-62.15,0.48l-2,1.75c-2.42,2-1.63,1.91-12.33,1.75l-8.67-0.19l-39.82,25.85
			C21.8,133.94,3.47,146.17,2.98,146.9c-1.25,1.87-0.12,3.28,8.18,10.23l6.87,5.76h324.32v-5.52l-323.1,0.14l-3.52-2.86
			c-1.23-0.88-2.36-1.88-3.37-3c0.64-0.65,30.8-1,137.66-1.46c58.75-0.28,125.07-0.44,192.33-0.51v-4.38
			c-31.83,0.05-62.17,0.15-90.16,0.3c-42.22,0.23-85.51,0.48-121.24,0.71s-63.92,0.43-75.91,0.55c-24,0.25-43.63,0.26-43.63,0
			c0-0.46,0.51-0.8,44-29l29.28-19l5.9,0.21l5.96,0.23l-26.34,18.14c-14.45,10-27.29,18.68-28.53,19.39c-6,3.43-12.52,3.31,148,2.67
			c43.13-0.17,98.75-0.29,152.65-0.33v-3c-26.27,0-49.94,0.1-68.79,0.19c-65.38,0.32-143.1,0.6-172.7,0.63l-53.83,0.06l2.84-2
			C62.28,126.11,99.97,100.49,102.26,99.39z"/>
		<path id="Right_Shelf_Outline" class="st3" d="M835.54,150.64c-2.59,2.62-5.36,5.05-8.28,7.29l-6.41,5.06H480.43v-5.59l339.81-0.1
			l3.5-2.67c1.21-0.82,2.32-1.77,3.33-2.83c-1.14-1.14-163.41-1.93-346.64-2v-4.5c104.83,0.14,214.56,0.68,304,1.57
			c38.42,0.38,43.78,0.3,42.84-0.61c-0.6-0.58-17.21-11.48-36.93-24.22l-35.85-23.19l-11.82,0.45l26.57,18.36
			c14.61,10.09,27.5,18.82,28.63,19.39s1.95,1.38,1.81,1.8c-0.28,0.86-75.55,1-297.13,0.44l-22.12-0.05v-3
			c35,0,69.5,0.13,99.88,0.26c88.5,0.37,172.32,0.57,186.25,0.46l25.33-0.21l-18.78-13c-30.95-21.36-36.15-24.84-37-24.84
			c-1.06-0.33-2.04-0.88-2.87-1.61l-2.06-1.62H480.43V89.5c81.5,0,156.27,0.21,189.78,0.49l62.17,0.5l2.17,1.81
			c2.09,1.77,2.45,1.82,11.62,1.67l9.46-0.15l40,25.9c22,14.24,40.38,26.52,40.89,27.29C837.27,148.22,837.14,148.71,835.54,150.64z
			"/>
		<g id="Shelf_Middle">
			<polygon class="st3" points="511.37,157.39 511.37,162.99 317.4,162.99 317.4,157.45 428.26,157.42 			"/>
			<path class="st3" d="M511.37,145.3v4.43c-63.84,0-129.15,0-194,0v-4.43C379.55,145.24,444.88,145.23,511.37,145.3z"/>
			<path class="st3" d="M511.37,136.2v3c-56.36,0-124.35,0-194,0v-3C377.2,136.15,444.72,136.15,511.37,136.2z"/>
			<path class="st3" d="M511.37,89.52v6.17h-194v-6.15C380.76,89.51,447.25,89.51,511.37,89.52z"/>
		</g>
		<g id="Top_Flower_Pot">
			<g id="Top_Shelf_Pot">
				<path class="st4" d="M158.82,80.3c3.6,11.59-4.74,21.9-5.62,22.94c-2.16,3.32-5.38,5.81-9.14,7.06c-2,0.65-3.82,0.63-7.38,0.65
					c-4.44,0-6.75,0-9.17-1c-1.3-0.58-3.48-1.85-6.5-6.58c-3.5-5.49-8.91-14-6-23.34c1.05-3.33,2.93-6.33,5.46-8.73
					c2.47,1.29,5.04,2.36,7.7,3.2c2.65,0.84,5.37,1.45,8.13,1.8c5.98-0.5,11.83-2.07,17.25-4.64
					C155.97,74.08,157.78,77.04,158.82,80.3z"/>
				<path class="st5" d="M160.55,80.85c-1.7-7.61-8.22-14.35-14-14.46c-3.79-0.08-4.09,1.56-0.49,2.73
					c8.25,2.66-5.09,6.94-15.12,4.84c-5.63-1.18-6.24-1.67-5.14-4.09c2.33-5.11-4.23-2.88-8.66,2.94
					c-5.47,7.2-5.54,16.53-0.18,27.11c1.73,3.42,6.69,9.6,9,11.25c1.73,0.81,3.57,1.33,5.47,1.55c5.12,0.76,11.14,0.32,15-1.11
					C154.78,108.49,162.84,90.95,160.55,80.85z M156.55,93.3c-2,5.55-6.12,12.16-8.81,14.21c-2.35,1.79-3.23,2-9.51,2.18
					c-9.13,0.26-11-0.48-15.26-6c-6.72-8.78-8.69-19.22-5-26.44c2-3.85,4-5.65,4.87-4.31c3,4.61,22.65,5.24,27.29,0.88
					c2.14-2,3.13-1.47,5.58,3c1.7,3.12,2.06,4.63,2,8.54C157.69,88.05,157.3,90.72,156.55,93.3z"/>
			</g>
			<g id="Flower">
				<path class="st6" d="M139.31,16.49c-0.67-1.54-1.12-3.16-1.35-4.82c-0.58-4.57-2.41-8.21-4.53-9c-2.5-1-2.89-0.62-3.87,3.27
					l-0.83,3.29l-2.83-3.58c-2.8-3.55-5.35-5.14-6.46-3.96s-2.19,5.51-2.19,8.28c0,3.3-1.2,3.62-3.7,1
					c-1.77-1.87-3.8-2.34-4.59-1.06s2.24,10,4.31,13.07c0.91,1.24,1.54,2.67,1.82,4.19c0.31,1.4,1.05,2.67,2.11,3.64
					c2.6,2.6,7.06,2.88,10.69,0.66c1.51-0.85,3.2-1.34,4.93-1.43c2,0,3.16-0.58,5-2.45c2.08-2.08,2.44-3,2.44-5.8
					C140.27,19.98,139.95,18.19,139.31,16.49z"/>
				<path class="st7" d="M121.1,5.79c0.33-0.33,1.38,0.37,2.34,1.56c1.26,1.55,1.88,3.53,1.73,5.53c0,4-0.69,4.66-3,2.81
					c-1.41-1.14-1.7-2.05-1.7-5.34C120.49,8.17,120.77,6.12,121.1,5.79z"/>
				<path class="st7" d="M125.14,29.3c-1.48,0.94-4.56,0.84-5.58-0.18c-1.43-1.42-1-2.07,1.11-1.62l3.75,0.78
					C125.81,28.61,125.96,28.82,125.14,29.3z"/>
				<path class="st7" d="M124.12,25.71c-2.18,0.16-4.31-0.68-5.8-2.28c-1.59-1.44-2.94-3.13-4-5c-1.81-3.53-0.89-3.63,5.2-0.55
					c4.81,2.43,7.81,5,7.81,6.75C127.33,25.43,126.55,25.71,124.12,25.71z"/>
				<path class="st7" d="M128.9,21.4c-2.1-2.84-2-4,1-8.62c1.06-1.49,1.9-3.13,2.5-4.86c0-0.51,0.29-0.93,0.64-0.93
					c1.67,0,2.07,8.82,0.56,12.44C131.93,23.3,130.71,23.86,128.9,21.4z"/>
				<path class="st7" d="M136.45,24.89c-1.05,0.64-2.21,1.08-3.42,1.29l-2.46,0.48l2.31-1.95c1.14-0.91,2.08-2.06,2.74-3.36
					c0.25-0.77,0.75-1.4,1.12-1.4C137.78,19.95,137.55,23.99,136.45,24.89z"/>
				<path class="st8" d="M157.09,33.05c-0.89,1.45-4.65,7-8.36,12.35s-7.58,11.34-8.62,13.32l-1.88,3.58l-0.55-5.4
					c-1.01-7.7-2.57-15.31-4.65-22.79c-1-3.52-2.46-5.07-3.93-4.17c-0.74,0.46-0.46,1.91,1.88,9.68c0.9,3,1.82,6.45,2,7.74
					c0.38,2.14,0.31,2.26-0.93,1.49c-1.04-0.84-1.87-1.91-2.44-3.12c-2.87-6-13.51-6.2-24.87-0.4c-2.09,1.07-3,2-2.84,2.79
					s0.9,1.18,3.53,1c2.82-0.2,4.32,0.3,10.38,3.48c7.68,4,9.92,4.28,13,1.42c0.56-0.61,1.24-1.09,2-1.43c0.8,0,3.23,5.3,3.79,8.25
					c0.47,2.54,0.4,2.74-0.84,2.23c-0.75-0.3-4-1.45-7.15-2.54c-2.78-0.93-5.51-2-8.18-3.23c-2-1-2.56-1.08-3.36-0.27
					c-1.41,1.42,0.52,5,4.81,8.81c4.47,4,7.88,5.61,13.25,6.17c6.44,0.67,10.45-1.16,16.6-7.59c5.61-5.87,10.6-17.51,11.6-27.05
					C162.15,29.57,160.36,27.75,157.09,33.05z"/>
				<path class="st9" d="M134.93,68.53c0,3.16-10.53-0.82-14.37-5.44c-1.67-2-0.31-2,5.43,0C132.71,65.36,134.93,66.72,134.93,68.53
					z"/>
				<path class="st9" d="M156.84,45.57c-1.93,8-7.3,16.6-12.79,20.55c-1.16,0.91-2.42,1.69-3.75,2.32c-0.94,0,0.35-4.62,2.42-8.69
					c2.5-4.89,14.48-22.27,15.36-22.27C158.72,37.48,158.6,38.3,156.84,45.57z"/>
				<path class="st9" d="M129.34,49.8l-1.65,1.76c-0.92,0.99-2.17,1.61-3.51,1.74c-2,0-13.14-5.77-13.55-7
					c-0.32-0.94,3.26-2.2,7.61-2.69c4.53-0.5,8,0.86,9.72,3.8L129.34,49.8z"/>
			</g>
		</g>
	</g>
</g>
</svg>
